#!OML:ASF H:\Dans Jumps\Project 1\Capture day 1\Session 1\subject.ASF
:FULLY-SPECIFIED
:DEGREES
256
root 0.8922 20.5638 -4.75559 14.5327 -0.759191 -1.23874
lowerback -4.65938 0.823185 0.361144
upperback -1.00513 1.0638 0.907588
thorax 1.56827 0.531881 0.791593
lowerneck -7.59731 -0.137416 -1.87971
upperneck 22.8694 0.141852 -0.0592128
head 8.33517 -0.0931308 0.312708
rclavicle 2.98177e-016 -5.96354e-016
rhumerus -10.8278 -4.79369 -77.581
rradius 34.5932
rwrist 31.1323
rhand -21.2024 -22.8383
rfingers 7.12502
rthumb 5.17891 -52.755
lclavicle 2.98177e-016 -5.96354e-016
lhumerus -14.3778 -14.7932 75.7418
lradius 35.1496
lwrist 20.8021
lhand -24.4923 -7.26101
lfingers 7.12502
lthumb 2.00188 22.7093
rfemur -11.6952 -2.0406 18.1176
rtibia 41.5575
rfoot 16.0949 -0.666757
rtoes 15.685
lfemur -8.71201 8.92491 -16.4683
ltibia 36.7655
lfoot 25.5728 0.329433
ltoes -6.98272
257
root 0.902439 20.781 -4.5457 13.9822 -0.854144 -1.27802
lowerback -4.01914 0.84924 0.417222
upperback -0.769432 1.09924 0.950968
thorax 1.45201 0.549669 0.798196
lowerneck -7.92165 -0.109933 -1.80661
upperneck 23.2109 0.187481 -0.10203
head 8.51065 -0.0723538 0.290896
rclavicle 6.41081e-015 3.97569e-016
rhumerus -10.9163 -6.44198 -77.8607
rradius 33.8258
rwrist 31.7687
rhand -21.1982 -22.9981
rfingers 7.12502
rthumb 5.18295 -52.9147
lclavicle 6.41081e-015 3.97569e-016
lhumerus -14.823 -13.466 76.3511
lradius 34.3656
lwrist 20.7584
lhand -24.4577 -7.02669
lfingers 7.12502
lthumb 2.03534 22.9433
rfemur -12.6901 -2.35085 18.3466
rtibia 43.6605
rfoot 15.8854 -0.0820628
rtoes 16.1288
lfemur -10.0115 9.55043 -16.5214
ltibia 39.9771
lfoot 25.4462 0.229369
ltoes -5.6377
258
root 0.911925 20.9885 -4.34288 13.2359 -0.86056 -1.30098
lowerback -3.03702 0.846821 0.463943
upperback -0.463341 1.10087 0.995243
thorax 1.21618 0.55055 0.803841
lowerneck -8.29468 -0.0932491 -1.73337
upperneck 23.4974 0.213083 -0.122412
head 8.67756 -0.0584703 0.274671
rclavicle 1.08835e-014 5.36719e-015
rhumerus -11.0521 -8.01459 -78.1108
rradius 33.1138
rwrist 32.2901
rhand -21.2259 -23.1192
rfingers 7.12502
rthumb 5.1562 -53.0365
lclavicle 1.08835e-014 5.36719e-015
lhumerus -15.277 -12.1798 76.9133
lradius 33.6101
lwrist 20.6756
lhand -24.4178 -6.96907
lfingers 7.12502
lthumb 2.0739 23.0006
rfemur -13.4684 -2.84036 18.565
rtibia 45.5416
rfoot 15.5127 0.245011
rtoes 16.1614
lfemur -11.1909 10.1222 -16.5393
ltibia 43.175
lfoot 25.1506 0.193936
ltoes -4.59205
259
root 0.920875 21.1864 -4.1434 12.3567 -0.786085 -1.31465
lowerback -1.8329 0.81502 0.500265
upperback -0.108679 1.06655 1.04896
thorax 0.904959 0.533324 0.820912
lowerneck -8.6303 -0.0860864 -1.67459
upperneck 23.6753 0.222729 -0.130256
head 8.8011 -0.0512583 0.263418
rclavicle -1.30204e-014 -1.98785e-015
rhumerus -11.2421 -9.43997 -78.3257
rradius 32.4355
rwrist 32.7175
rhand -21.2811 -23.2085
rfingers 7.12502
rthumb 5.10289 -53.127
lclavicle -1.30204e-014 -1.98785e-015
lhumerus -15.7623 -10.9824 77.4403
lradius 32.8757
lwrist 20.5257
lhand -24.36 -7.09662
lfingers 7.12502
lthumb 2.12971 22.8725
rfemur -14.0666 -3.47594 18.7716
rtibia 47.1672
rfoot 15.0258 0.270081
rtoes 15.9564
lfemur -12.2946 10.6371 -16.5235
ltibia 46.3121
lfoot 24.6825 0.207953
ltoes -3.92252
260
root 0.92933 21.3748 -3.94402 11.4298 -0.648491 -1.32894
lowerback -0.537149 0.761983 0.528906
upperback 0.264311 1.00593 1.11678
thorax 0.560472 0.502764 0.856467
lowerneck -8.9043 -0.0849591 -1.63116
upperneck 23.7573 0.224184 -0.137787
head 8.88054 -0.0484435 0.253895
rclavicle -4.52235e-015 -5.1684e-015
rhumerus -11.5058 -10.651 -78.4962
rradius 31.7946
rwrist 33.0622
rhand -21.3504 -23.2807
rfingers 7.12502
rthumb 5.03602 -53.2008
lclavicle -4.52235e-015 -5.1684e-015
lhumerus -16.2838 -9.92075 77.9461
lradius 32.15
lwrist 20.2946
lhand -24.2601 -7.39246
lfingers 7.12502
lthumb 2.22616 22.5757
rfemur -14.5589 -4.20525 18.9705
rtibia 48.5245
rfoot 14.4831 0.0408009
rtoes 15.8526
lfemur -13.3945 11.1002 -16.4834
ltibia 49.3488
lfoot 24.1051 0.29262
ltoes -3.53914
261
root 0.93727 21.5538 -3.74253 10.5419 -0.475654 -1.3487
lowerback 0.729355 0.700133 0.548305
upperback 0.62555 0.934456 1.19995
thorax 0.220077 0.466606 0.915566
lowerneck -9.12074 -0.0889583 -1.59274
upperneck 23.7873 0.223228 -0.168805
head 8.93154 -0.0491653 0.236892
rclavicle -2.08724e-015 -2.5842e-015
rhumerus -11.8428 -11.6284 -78.6153
rradius 31.1718
rwrist 33.3766
rhand -21.4284 -23.341
rfingers 7.12502
rthumb 4.96069 -53.2629
lclavicle -2.08724e-015 -2.5842e-015
lhumerus -16.8417 -9.01228 78.4448
lradius 31.4267
lwrist 19.9618
lhand -24.1079 -7.79218
lfingers 7.12502
lthumb 2.37312 22.1744
rfemur -15.0347 -4.96424 19.1661
rtibia 49.6153
rfoot 13.8559 -0.298663
rtoes 15.7512
lfemur -14.5615 11.5269 -16.4401
ltibia 52.2489
lfoot 23.4973 0.482001
ltoes -3.15083
262
root 0.944753 21.723 -3.53785 9.76536 -0.291117 -1.37631
lowerback 1.8709 0.643277 0.562133
upperback 0.953703 0.869459 1.29486
thorax -0.0839322 0.433592 0.993629
lowerneck -9.28039 -0.108151 -1.57635
upperneck 23.7981 0.207184 -0.213435
head 8.96549 -0.0600533 0.217375
rclavicle -1.59028e-015 -9.93923e-015
rhumerus -12.2305 -12.3862 -78.6876
rradius 30.5485
rwrist 33.6932
rhand -21.4902 -23.4188
rfingers 7.12502
rthumb 4.90102 -53.3421
lclavicle -1.59028e-015 -9.93923e-015
lhumerus -17.3956 -8.29667 78.9441
lradius 30.6867
lwrist 19.5498
lhand -23.9268 -8.20668
lfingers 7.12502
lthumb 2.54809 21.7578
rfemur -15.5751 -5.69559 19.3664
rtibia 50.4515
rfoot 13.1432 -0.640897
rtoes 15.529
lfemur -15.8547 11.9265 -16.4165
ltibia 54.9802
lfoot 22.8564 0.804295
ltoes -2.66141
263
root 0.951948 21.8818 -3.32981 9.14664 -0.11889 -1.41191
lowerback 2.83054 0.600697 0.573675
upperback 1.23618 0.822552 1.39638
thorax -0.332404 0.409597 1.08313
lowerneck -9.43427 -0.13659 -1.56104
upperneck 23.842 0.185884 -0.287778
head 9.00996 -0.0767439 0.187355
rclavicle 2.28602e-015 7.15625e-015
rhumerus -12.6619 -12.9409 -78.7211
rradius 29.9293
rwrist 34.0412
rhand -21.545 -23.4996
rfingers 7.12502
rthumb 4.84812 -53.4241
lclavicle 2.28602e-015 7.15625e-015
lhumerus -17.9232 -7.78099 79.4448
lradius 29.9354
lwrist 19.0837
lhand -23.7404 -8.52566
lfingers 7.12502
lthumb 2.72804 21.4366
rfemur -16.2357 -6.34712 19.5799
rtibia 51.0494
rfoot 12.3727 -0.941498
rtoes 15.2183
lfemur -17.3072 12.311 -16.432
ltibia 57.5123
lfoot 22.145 1.2369
ltoes -2.12117
264
root 0.959107 22.0294 -3.11925 8.7073 0.0306893 -1.44728
lowerback 3.58489 0.574871 0.580353
upperback 1.46586 0.796418 1.4981
thorax -0.519738 0.396 1.178
lowerneck -9.57425 -0.175113 -1.55944
upperneck 23.9159 0.155885 -0.372627
head 9.06242 -0.099976 0.155084
rclavicle 3.97569e-016 4.37326e-015
rhumerus -13.1029 -13.3468 -78.7323
rradius 29.299
rwrist 34.4388
rhand -21.5938 -23.6103
rfingers 7.12502
rthumb 4.80102 -53.5359
lclavicle 3.97569e-016 4.37326e-015
lhumerus -18.4122 -7.42989 79.9442
lradius 29.1826
lwrist 18.5647
lhand -23.5704 -8.66879
lfingers 7.12502
lthumb 2.8922 21.2913
rfemur -17.0488 -6.8961 19.8078
rtibia 51.4274
rfoot 11.5685 -1.17697
rtoes 14.7524
lfemur -18.9305 12.6714 -16.5087
ltibia 59.8148
lfoot 21.3603 1.75121
ltoes -1.47831
265
root 0.966468 22.165 -2.90654 8.43838 0.151154 -1.48558
lowerback 4.14556 0.567447 0.592738
upperback 1.64052 0.793458 1.59472
thorax -0.654931 0.394058 1.26569
lowerneck -9.70457 -0.219233 -1.56528
upperneck 24.0262 0.119724 -0.456446
head 9.12584 -0.12688 0.123645
rclavicle 9.93923e-016 1.31198e-014
rhumerus -13.5633 -13.6611 -78.7321
rradius 28.6805
rwrist 34.8682
rhand -21.6332 -23.7321
rfingers 7.12502
rthumb 4.76294 -53.6585
lclavicle 9.93923e-016 1.31198e-014
lhumerus -18.8555 -7.21848 80.4339
lradius 28.4183
lwrist 18.0243
lhand -23.4413 -8.73983
lfingers 7.12502
lthumb 3.01689 21.2186
rfemur -18.0055 -7.32643 20.0575
rtibia 51.5989
rfoot 10.773 -1.36171
rtoes 14.1823
lfemur -20.6983 12.9987 -16.6439
ltibia 61.855
lfoot 20.5244 2.27798
ltoes -0.732363
266
root 0.974122 22.2879 -2.69209 8.30888 0.241197 -1.52019
lowerback 4.54419 0.57322 0.606938
upperback 1.76637 0.806726 1.68077
thorax -0.749543 0.400306 1.34223
lowerneck -9.81874 -0.258099 -1.56483
upperneck 24.1609 0.088764 -0.535786
head 9.19477 -0.150509 0.0930544
rclavicle 4.17448e-015 1.98785e-014
rhumerus -14.0312 -13.9591 -78.7384
rradius 28.0813
rwrist 35.3153
rhand -21.6583 -23.8601
rfingers 7.12502
rthumb 4.73872 -53.7871
lclavicle 4.17448e-015 1.98785e-014
lhumerus -19.2691 -7.07922 80.8996
lradius 27.6689
lwrist 17.4682
lhand -23.3493 -8.75359
lfingers 7.12502
lthumb 3.10581 21.2035
rfemur -19.0701 -7.6335 20.3209
rtibia 51.5745
rfoot 10.0191 -1.51374
rtoes 13.5672
lfemur -22.5598 13.2723 -16.8374
ltibia 63.5982
lfoot 19.685 2.75331
ltoes 0.073366
267
root 0.982025 22.3971 -2.47626 8.27169 0.301256 -1.55345
lowerback 4.82204 0.586057 0.624076
upperback 1.8627 0.828233 1.75706
thorax -0.806919 0.410725 1.40766
lowerneck -9.9026 -0.287212 -1.56573
upperneck 24.2893 0.0662971 -0.595259
head 9.25584 -0.168166 0.0702921
rclavicle 7.95139e-015 1.98785e-014
rhumerus -14.4997 -14.2927 -78.7595
rradius 27.5249
rwrist 35.7464
rhand -21.6791 -23.9705
rfingers 7.12502
rthumb 4.71867 -53.8979
lclavicle 7.95139e-015 1.98785e-014
lhumerus -19.6554 -6.94538 81.3291
lradius 26.9566
lwrist 16.9161
lhand -23.3081 -8.71461
lfingers 7.12502
lthumb 3.14558 21.2419
rfemur -20.1888 -7.81895 20.5943
rtibia 51.3618
rfoot 9.32408 -1.62451
rtoes 12.8595
lfemur -24.4439 13.4733 -17.0707
ltibia 65.0134
lfoot 18.8943 3.12073
ltoes 0.837668
268
root 0.990311 22.4925 -2.25844 8.26918 0.339771 -1.57886
lowerback 5.02813 0.59839 0.638805
upperback 1.95193 0.847894 1.82238
thorax -0.831335 0.420226 1.46391
lowerneck -9.96034 -0.30373 -1.57197
upperneck 24.3963 0.0543303 -0.624642
head 9.30444 -0.17809 0.0598508
rclavicle -8.54774e-015 -2.38542e-015
rhumerus -14.9466 -14.726 -78.8027
rradius 27.0108
rwrist 36.149
rhand -21.6925 -24.0419
rfingers 7.12502
rthumb 4.70574 -53.9696
lclavicle -8.54774e-015 -2.38542e-015
lhumerus -20.003 -6.77717 81.7101
lradius 26.2881
lwrist 16.4003
lhand -23.3075 -8.60016
lfingers 7.12502
lthumb 3.14614 21.3564
rfemur -21.2855 -7.9019 20.8563
rtibia 50.9672
rfoot 8.70653 -1.68514
rtoes 12.1219
lfemur -26.2608 13.5799 -17.3294
ltibia 66.0732
lfoot 18.1904 3.36021
ltoes 1.54747
